# xmcd
#
# Track frame offsets: 
#        183
#        17285
#        36508
#        56985
#        75285
#        97223
#        116943
#        137773
#
# Disc length: 2094 seconds
#
# Revision: 2
# Processed by: cddbd v1.5.2PL0 Copyright (c) Steve Scherf et al.
# Submitted via: ExactAudioCopy v0.99pb3
#
DISCID=6a082c08
DTITLE=Pepe Ahlqvist And The Sunset Boulevard - Pepe Ahlqvist And The 
DTITLE=Sunset Boulevard
DYEAR=1988
DGENRE=Funk
TTITLE0=Good Old Music
TTITLE1=Shake
TTITLE2=Don't Leave Me Again
TTITLE3=All That Western World
TTITLE4=Need You Oh Woman
TTITLE5=Blues Is A Feeling (In My Mind)
TTITLE6=Hold Me Tight
TTITLE7=Sailing
EXTD=
EXTT0=
EXTT1=
EXTT2=
EXTT3=
EXTT4=
EXTT5=
EXTT6=
EXTT7=
PLAYORDER=
